# xmcd CD database file
#
# Track frame offsets:
#	150
#	36392
#	68692
#	100652
#	133702
#	165545
#	194487
#
# Disc length: 2883 seconds
#
# Revision: 4
# Processed by: cddbd v1.5.2PL0 Copyright (c) Steve Scherf et al.
# Submitted via: CDex 1.51
#
DISCID=5c0b4107
DTITLE=Herbie Hancock - Secrets
DYEAR=1976
DGENRE=Jazz
TTITLE0=Doin' It
TTITLE1=People Music
TTITLE2=Cantelope Island
TTITLE3=Spider
TTITLE4=Gentle Thoughts
TTITLE5=Swamp Rat
TTITLE6=Sonsho Shima
EXTD=YEAR: 1976
EXTT0=
EXTT1=
EXTT2=
EXTT3=
EXTT4=
EXTT5=
EXTT6=
PLAYORDER=
